<svg xmlns="http://www.w3.org/2000/svg" viewBox="0 0 500 500"><g id="freepik--background-simple--inject-119"><path d="M324.18,23.36S251.45-2.51,180.05,38.67,72.62,161.59,41.69,227.06,28.56,359.14,83.06,389.51s91.56-14.4,168-16.58,97,8.75,160.47-34.44,74.92-145.2,24.87-220.68S324.18,23.36,324.18,23.36Z" style="fill:#92E3A9"></path><path d="M324.18,23.36S251.45-2.51,180.05,38.67,72.62,161.59,41.69,227.06,28.56,359.14,83.06,389.51s91.56-14.4,168-16.58,97,8.75,160.47-34.44,74.92-145.2,24.87-220.68S324.18,23.36,324.18,23.36Z" style="fill:#fff;opacity:0.7000000000000001"></path></g><g id="freepik--Floor--inject-119"><ellipse cx="253.77" cy="457.19" rx="218.77" ry="11.74" style="fill:#92E3A9"></ellipse><ellipse cx="253.77" cy="457.19" rx="218.77" ry="11.74" style="fill:#fff;opacity:0.5"></ellipse><line x1="35" y1="442" x2="468" y2="442" style="fill:#fff;stroke:#263238;stroke-linecap:round;stroke-linejoin:round"></line></g><g id="freepik--Window--inject-119"><rect x="276" y="36" width="179" height="12" style="fill:none;stroke:#263238;stroke-linecap:round;stroke-linejoin:round"></rect><rect x="276" y="51" width="179" height="12" style="fill:none;stroke:#263238;stroke-linecap:round;stroke-linejoin:round"></rect><rect x="276" y="66" width="179" height="12" style="fill:none;stroke:#263238;stroke-linecap:round;stroke-linejoin:round"></rect><rect x="276" y="81" width="179" height="12" style="fill:none;stroke:#263238;stroke-linecap:round;stroke-linejoin:round"></rect><rect x="276" y="96" width="179" height="12" style="fill:none;stroke:#263238;stroke-linecap:round;stroke-linejoin:round"></rect><rect x="276" y="111" width="179" height="12" style="fill:none;stroke:#263238;stroke-linecap:round;stroke-linejoin:round"></rect><rect x="276" y="126" width="179" height="12" style="fill:none;stroke:#263238;stroke-linecap:round;stroke-linejoin:round"></rect><rect x="276" y="141" width="179" height="12" style="fill:none;stroke:#263238;stroke-linecap:round;stroke-linejoin:round"></rect><rect x="276" y="156" width="179" height="12" style="fill:none;stroke:#263238;stroke-linecap:round;stroke-linejoin:round"></rect><rect x="276" y="171" width="179" height="12" style="fill:none;stroke:#263238;stroke-linecap:round;stroke-linejoin:round"></rect><rect x="276" y="186" width="179" height="12" style="fill:none;stroke:#263238;stroke-linecap:round;stroke-linejoin:round"></rect><rect x="276" y="201" width="179" height="12" style="fill:none;stroke:#263238;stroke-linecap:round;stroke-linejoin:round"></rect><rect x="276" y="216" width="179" height="12" style="fill:none;stroke:#263238;stroke-linecap:round;stroke-linejoin:round"></rect></g><g id="freepik--Plants--inject-119"><path d="M71.43,232.7s0-4.78-6.7-11.48-11-10.53-11-10.53-3.35,11,2.87,17.71a117.42,117.42,0,0,0,14.84,12.92Z" style="fill:#92E3A9"></path><path d="M61.71,262.59s0-4.79-6.7-11.49-11-10.52-11-10.52-3.35,11,2.87,17.7A117.42,117.42,0,0,0,61.71,271.2Z" style="fill:#92E3A9"></path><path d="M71,240.86s.5-4.76,7.87-10.72,12.06-9.3,12.06-9.3,2.17,11.3-4.73,17.3A118,118,0,0,1,70.1,249.42Z" style="fill:#92E3A9"></path><path d="M59.26,276.15s1-4.68,9-9.83,13-8,13-8,1,11.47-6.52,16.72a118.43,118.43,0,0,1-17.21,9.52Z" style="fill:#92E3A9"></path><path d="M61.47,314.63s0-4.79,6.7-11.49,11-10.52,11-10.52,3.35,11-2.87,17.7a117.69,117.69,0,0,1-14.83,12.92Z" style="fill:#92E3A9"></path><path d="M61.36,324s.68-4.74-5-12.32-9.4-12-9.4-12-4.88,10.41.33,17.93a118,118,0,0,0,12.84,14.9Z" style="fill:#92E3A9"></path><path d="M54.75,351.86s0-4.79,6.7-11.49,11-10.53,11-10.53,3.35,11-2.87,17.71a118.19,118.19,0,0,1-14.84,12.92Z" style="fill:#92E3A9"></path><path d="M59.23,377.09s-1.22-4.63,3.57-12.8,8-13,8-13,6,9.79,1.7,17.85a117.83,117.83,0,0,1-11.07,16.26Z" style="fill:#92E3A9"></path><path d="M72,231.48a136.55,136.55,0,0,1-1.83,14.86C67.55,260,60.93,268.85,58.28,281.2s5,28.28,2.92,44.16-8.21,24.7-6.45,35.29,11,39.28,11,39.28" style="fill:none;stroke:#263238;stroke-linecap:round;stroke-linejoin:round"></path><line x1="70.94" y1="244.04" x2="78.16" y2="238.49" style="fill:none;stroke:#263238;stroke-linecap:round;stroke-linejoin:round"></line><line x1="71.28" y1="237.66" x2="68.25" y2="232.28" style="fill:none;stroke:#263238;stroke-linecap:round;stroke-linejoin:round"></line><path d="M58.68,280.64s6.05-4.54,12.26-9.07" style="fill:none;stroke:#263238;stroke-linecap:round;stroke-linejoin:round"></path><path d="M61.71,271.2s-5-9.87-10.75-16.42" style="fill:none;stroke:#263238;stroke-linecap:round;stroke-linejoin:round"></path><path d="M61.71,321.44a74.83,74.83,0,0,1,12.92-17.3" style="fill:none;stroke:#263238;stroke-linecap:round;stroke-linejoin:round"></path><path d="M60.53,328.15A84,84,0,0,0,54,315.73c-3.52-5.21-4-5.88-4-5.88" style="fill:none;stroke:#263238;stroke-linecap:round;stroke-linejoin:round"></path><path d="M54.75,360.65a79.76,79.76,0,0,1,5.45-11,70,70,0,0,1,7-9.23" style="fill:none;stroke:#263238;stroke-linecap:round;stroke-linejoin:round"></path><path d="M61.41,385.43a20.49,20.49,0,0,1,1.81-10.6c2.52-4.87,5.37-11.25,6.55-13.77" style="fill:none;stroke:#263238;stroke-linecap:round;stroke-linejoin:round"></path><path d="M27.56,296.63s-.52-3,3-7.93,5.76-7.79,5.76-7.79,3.3,6.53.12,11.41a74.17,74.17,0,0,1-7.9,9.71Z" style="fill:#92E3A9"></path><path d="M36.9,314.32s-.52-3,3-7.93,5.76-7.8,5.76-7.8,3.3,6.54.12,11.42a75,75,0,0,1-7.9,9.71Z" style="fill:#92E3A9"></path><path d="M28.71,301.7s-.84-2.93-6.1-5.87S14,291.31,14,291.31s-.14,7.32,4.84,10.34A75.22,75.22,0,0,0,30.21,307Z" style="fill:#92E3A9"></path><path d="M39.9,322.55s-1.13-2.82-6.68-5.19-9-3.6-9-3.6.64,7.3,5.9,9.77A75.15,75.15,0,0,0,42,327.64Z" style="fill:#92E3A9"></path><path d="M42.7,346.92s-.52-3-5.45-6.47-8-5.41-8-5.41-.9,7.27,3.73,10.79a75.11,75.11,0,0,0,10.7,6.5Z" style="fill:#92E3A9"></path><path d="M43.79,352.8s-.94-2.9,1.79-8.27,4.6-8.53,4.6-8.53,4.19,6,1.74,11.28A74.64,74.64,0,0,1,45.48,358Z" style="fill:#92E3A9"></path><path d="M52.2,377s.34-3,5.06-6.78S65,364.37,65,364.37s1.32,7.21-3.1,11a75.2,75.2,0,0,1-10.32,7.09Z" style="fill:#92E3A9"></path><path d="M51,369.54s-.52-3-5.45-6.47-8-5.41-8-5.41-.91,7.26,3.72,10.79a74.39,74.39,0,0,0,10.71,6.49Z" style="fill:#92E3A9"></path><path d="M50.89,385.85s.25-3-3.63-7.64-6.42-7.27-6.42-7.27-2.71,6.8.87,11.38a74.79,74.79,0,0,0,8.71,9Z" style="fill:#92E3A9"></path><path d="M27,295.93a88,88,0,0,0,2.77,9.12c3.14,8.29,8.25,13.11,11.26,20.57s0,18.27,3,28,7.83,14.6,7.88,21.43-2.66,25.83-2.66,25.83" style="fill:none;stroke:#263238;stroke-linecap:round;stroke-linejoin:round"></path><line x1="29.09" y1="303.68" x2="23.97" y2="300.99" style="fill:none;stroke:#263238;stroke-linecap:round;stroke-linejoin:round"></line><line x1="28.19" y1="299.72" x2="29.5" y2="296.02" style="fill:none;stroke:#263238;stroke-linecap:round;stroke-linejoin:round"></line><path d="M40.75,325.31s-4.28-2.19-8.67-4.36" style="fill:none;stroke:#263238;stroke-linecap:round;stroke-linejoin:round"></path><path d="M37.83,319.72a61.51,61.51,0,0,1,5-11.47" style="fill:none;stroke:#263238;stroke-linecap:round;stroke-linejoin:round"></path><path d="M43.29,351.22a47.52,47.52,0,0,0-10-9.44" style="fill:none;stroke:#263238;stroke-linecap:round;stroke-linejoin:round"></path><path d="M44.75,355.3a53.6,53.6,0,0,1,2.76-8.5c1.65-3.65,1.89-4.12,1.89-4.12" style="fill:none;stroke:#263238;stroke-linecap:round;stroke-linejoin:round"></path><path d="M51.67,380.24a44.73,44.73,0,0,1,5.52-5.73,30.2,30.2,0,0,0,3.58-3.11" style="fill:none;stroke:#263238;stroke-linecap:round;stroke-linejoin:round"></path><path d="M51.91,375.05a52.13,52.13,0,0,0-4.61-6.31,45.41,45.41,0,0,0-5.43-5" style="fill:none;stroke:#263238;stroke-linecap:round;stroke-linejoin:round"></path><path d="M50.42,391.31a13.1,13.1,0,0,0-2.28-6.45c-2.11-2.78-4.59-6.47-5.6-7.92" style="fill:none;stroke:#263238;stroke-linecap:round;stroke-linejoin:round"></path><path d="M75.64,447.37H44.53a2.45,2.45,0,0,1-2.45-2.45L34.37,397H85.81l-7.72,47.92A2.45,2.45,0,0,1,75.64,447.37Z" style="fill:#263238;stroke:#263238;stroke-linecap:round;stroke-linejoin:round"></path><path d="M85.36,403.71h-51a4,4,0,0,1-4-4h0a4,4,0,0,1,4-4h51a4,4,0,0,1,4,4h0A4,4,0,0,1,85.36,403.71Z" style="fill:#263238;stroke:#263238;stroke-linecap:round;stroke-linejoin:round"></path><line x1="36.39" y1="403.88" x2="73.42" y2="403.88" style="fill:none;stroke:#fff;stroke-linecap:round;stroke-linejoin:round"></line><line x1="76.9" y1="403.88" x2="83" y2="403.88" style="fill:none;stroke:#fff;stroke-linecap:round;stroke-linejoin:round"></line></g><g id="freepik--Clock--inject-119"><circle cx="208.5" cy="67.5" r="33.5" style="fill:none;stroke:#263238;stroke-linecap:round;stroke-linejoin:round;stroke-width:4px"></circle><circle cx="208.5" cy="67.5" r="2.49" style="fill:none;stroke:#263238;stroke-linecap:round;stroke-linejoin:round;stroke-width:2px"></circle><line x1="210.99" y1="67.5" x2="223.29" y2="67.5" style="fill:none;stroke:#263238;stroke-linecap:round;stroke-linejoin:round;stroke-width:2px"></line><line x1="206.2" y1="68.84" x2="183.22" y2="81.54" style="fill:none;stroke:#263238;stroke-linecap:round;stroke-linejoin:round;stroke-width:2px"></line><line x1="208.18" y1="37.23" x2="208.18" y2="44.09" style="fill:none;stroke:#263238;stroke-linecap:round;stroke-linejoin:round"></line><line x1="208.18" y1="90.57" x2="208.18" y2="97.43" style="fill:none;stroke:#263238;stroke-linecap:round;stroke-linejoin:round"></line><line x1="178.07" y1="67.33" x2="184.94" y2="67.33" style="fill:none;stroke:#263238;stroke-linecap:round;stroke-linejoin:round"></line><line x1="231.42" y1="67.33" x2="238.28" y2="67.33" style="fill:none;stroke:#263238;stroke-linecap:round;stroke-linejoin:round"></line><line x1="191.56" y1="92.43" x2="195.35" y2="86.71" style="fill:none;stroke:#263238;stroke-linecap:round;stroke-linejoin:round"></line><line x1="221" y1="47.95" x2="224.79" y2="42.22" style="fill:none;stroke:#263238;stroke-linecap:round;stroke-linejoin:round"></line><line x1="181.5" y1="53.38" x2="187.58" y2="56.56" style="fill:none;stroke:#263238;stroke-linecap:round;stroke-linejoin:round"></line><line x1="228.77" y1="78.1" x2="234.85" y2="81.28" style="fill:none;stroke:#263238;stroke-linecap:round;stroke-linejoin:round"></line><line x1="191.05" y1="42.57" x2="194.95" y2="48.22" style="fill:none;stroke:#263238;stroke-linecap:round;stroke-linejoin:round"></line><line x1="221.4" y1="86.44" x2="225.31" y2="92.08" style="fill:none;stroke:#263238;stroke-linecap:round;stroke-linejoin:round"></line><line x1="181.42" y1="81.12" x2="187.52" y2="77.98" style="fill:none;stroke:#263238;stroke-linecap:round;stroke-linejoin:round"></line><line x1="228.83" y1="56.68" x2="234.93" y2="53.53" style="fill:none;stroke:#263238;stroke-linecap:round;stroke-linejoin:round"></line></g><g id="freepik--Device--inject-119"><path d="M244.65,183.9h52.73a0,0,0,0,1,0,0v53.62a0,0,0,0,1,0,0H223.65a0,0,0,0,1,0,0V204.9A21,21,0,0,1,244.65,183.9Z" style="fill:#fff;stroke:#263238;stroke-linecap:round;stroke-linejoin:round"></path><path d="M314.44,184.15h55.44a11.78,11.78,0,0,1,11.78,11.78V444.36a0,0,0,0,1,0,0H314.44a0,0,0,0,1,0,0V184.15A0,0,0,0,1,314.44,184.15Z" style="fill:#3d3d3d;stroke:#263238;stroke-linecap:round;stroke-linejoin:round"></path><polygon points="384.9 193.11 347.05 197.11 347.05 192.46 384.9 188.46 384.9 193.11" style="fill:#737373;stroke:#263238;stroke-linecap:round;stroke-linejoin:round"></polygon><polygon points="350.68 201.98 325.63 204.63 325.63 194.72 350.68 192.08 350.68 201.98" style="fill:#737373;stroke:#263238;stroke-linecap:round;stroke-linejoin:round"></polygon><circle cx="267.92" cy="443.53" r="8.84" style="fill:#263238;stroke:#263238;stroke-linecap:round;stroke-linejoin:round"></circle><circle cx="234.58" cy="443.53" r="8.84" style="fill:#263238;stroke:#263238;stroke-linecap:round;stroke-linejoin:round"></circle><circle cx="402.96" cy="443.53" r="8.84" style="fill:#263238;stroke:#263238;stroke-linecap:round;stroke-linejoin:round"></circle><circle cx="369.62" cy="443.53" r="8.84" style="fill:#263238;stroke:#263238;stroke-linecap:round;stroke-linejoin:round"></circle><rect x="223.65" y="214.54" width="158" height="229.82" style="fill:#fff;stroke:#263238;stroke-linecap:round;stroke-linejoin:round"></rect><polygon points="219.51 298.25 218.34 298.14 172.57 294.14 155.66 292.65 155.66 296.49 192.69 303.92 192.69 308.03 218.34 316.64 218.34 322.4 236.42 323.99 236.42 322.71 236.42 299.73 219.51 298.25" style="fill:#adadad;stroke:#263238;stroke-linecap:round;stroke-linejoin:round"></polygon><line x1="155.66" y1="296.48" x2="171.62" y2="297.88" style="fill:none;stroke:#263238;stroke-linecap:round;stroke-linejoin:round"></line><line x1="192.69" y1="303.92" x2="207.68" y2="305.24" style="fill:none;stroke:#263238;stroke-linecap:round;stroke-linejoin:round"></line><line x1="192.69" y1="308.03" x2="208.65" y2="309.42" style="fill:none;stroke:#263238;stroke-linecap:round;stroke-linejoin:round"></line><line x1="218.34" y1="316.64" x2="233.87" y2="318" style="fill:none;stroke:#263238;stroke-linecap:round;stroke-linejoin:round"></line><polygon points="171.62 297.88 208.77 305.34 208.77 297.31 171.62 294.05 171.62 297.88" style="fill:#fff;stroke:#263238;stroke-linecap:round;stroke-linejoin:round"></polygon><polygon points="208.65 309.42 252.38 324.11 252.38 301.13 208.65 297.3 208.65 309.42" style="fill:#fff;stroke:#263238;stroke-linecap:round;stroke-linejoin:round"></polygon><polygon points="234.3 323.8 252.38 325.38 252.38 301.13 234.3 299.54 234.3 323.8" style="fill:#fff;stroke:#263238;stroke-linecap:round;stroke-linejoin:round"></polygon><rect x="223.65" y="214.54" width="158" height="21.07" style="fill:#92E3A9;stroke:#263238;stroke-linecap:round;stroke-linejoin:round"></rect><rect x="226.85" y="284.44" width="22.34" height="8.3" style="fill:#3d3d3d;stroke:#263238;stroke-linecap:round;stroke-linejoin:round"></rect><polygon points="473.97 243.35 439.43 243.35 390.27 260.5 390.27 278.38 473.97 243.35" style="fill:#adadad;stroke:#263238;stroke-linecap:round;stroke-linejoin:round"></polygon><polygon points="475.27 246.95 428.49 275.34 423.51 261.53 473.97 243.35 475.27 246.95" style="fill:#fff;stroke:#263238;stroke-linecap:round;stroke-linejoin:round"></polygon><polygon points="458.57 261.79 411.79 290.18 404 268.56 454.46 250.38 458.57 261.79" style="fill:#fff;stroke:#263238;stroke-linecap:round;stroke-linejoin:round"></polygon><rect x="388.43" y="231.91" width="30.01" height="29.1" style="fill:#fff;stroke:#9e9e9e;stroke-linecap:round;stroke-linejoin:round"></rect><line x1="388.55" y1="235.52" x2="418.27" y2="235.52" style="fill:none;stroke:#9e9e9e;stroke-linecap:round;stroke-linejoin:round"></line><line x1="388.55" y1="239.24" x2="418.27" y2="239.24" style="fill:none;stroke:#9e9e9e;stroke-linecap:round;stroke-linejoin:round"></line><line x1="388.55" y1="242.96" x2="418.27" y2="242.96" style="fill:none;stroke:#9e9e9e;stroke-linecap:round;stroke-linejoin:round"></line><line x1="388.55" y1="246.68" x2="418.27" y2="246.68" style="fill:none;stroke:#9e9e9e;stroke-linecap:round;stroke-linejoin:round"></line><line x1="388.55" y1="250.4" x2="418.27" y2="250.4" style="fill:none;stroke:#9e9e9e;stroke-linecap:round;stroke-linejoin:round"></line><line x1="388.55" y1="254.13" x2="418.27" y2="254.13" style="fill:none;stroke:#9e9e9e;stroke-linecap:round;stroke-linejoin:round"></line><line x1="388.55" y1="257.85" x2="418.27" y2="257.85" style="fill:none;stroke:#9e9e9e;stroke-linecap:round;stroke-linejoin:round"></line><polygon points="447.58 250.98 418.4 260.98 418.4 231.88 447.58 221.88 447.58 250.98" style="fill:#fff;stroke:#9e9e9e;stroke-linecap:round;stroke-linejoin:round"></polygon><line x1="418.51" y1="235.45" x2="447.41" y2="225.55" style="fill:none;stroke:#9e9e9e;stroke-linecap:round;stroke-linejoin:round"></line><line x1="418.51" y1="239.17" x2="447.41" y2="229.27" style="fill:none;stroke:#9e9e9e;stroke-linecap:round;stroke-linejoin:round"></line><line x1="418.51" y1="242.89" x2="447.41" y2="232.99" style="fill:none;stroke:#9e9e9e;stroke-linecap:round;stroke-linejoin:round"></line><line x1="418.51" y1="246.61" x2="447.41" y2="236.71" style="fill:none;stroke:#9e9e9e;stroke-linecap:round;stroke-linejoin:round"></line><line x1="418.51" y1="250.34" x2="447.41" y2="240.44" style="fill:none;stroke:#9e9e9e;stroke-linecap:round;stroke-linejoin:round"></line><line x1="418.51" y1="254.06" x2="447.41" y2="244.16" style="fill:none;stroke:#9e9e9e;stroke-linecap:round;stroke-linejoin:round"></line><line x1="418.51" y1="257.78" x2="447.41" y2="247.88" style="fill:none;stroke:#9e9e9e;stroke-linecap:round;stroke-linejoin:round"></line><polygon points="447.58 221.88 417.24 221.88 388.43 231.91 418.4 231.88 447.58 221.88" style="fill:#fff;stroke:#9e9e9e;stroke-linecap:round;stroke-linejoin:round"></polygon><rect x="257.49" y="214.54" width="158" height="229.82" style="fill:#fff;stroke:#263238;stroke-linecap:round;stroke-linejoin:round"></rect><path d="M278.49,183.9h52.73a0,0,0,0,1,0,0v53.62a0,0,0,0,1,0,0H257.49a0,0,0,0,1,0,0V204.9A21,21,0,0,1,278.49,183.9Z" style="fill:#92E3A9;stroke:#263238;stroke-linecap:round;stroke-linejoin:round"></path><path d="M257.49,214.54h158a0,0,0,0,1,0,0v79A22.5,22.5,0,0,1,393,316H280a22.5,22.5,0,0,1-22.5-22.5v-79A0,0,0,0,1,257.49,214.54Z" style="fill:#92E3A9;stroke:#263238;stroke-linecap:round;stroke-linejoin:round"></path><rect x="257.49" y="214.54" width="158" height="21.07" style="fill:#92E3A9;stroke:#263238;stroke-linecap:round;stroke-linejoin:round"></rect><line x1="292.92" y1="236.56" x2="292.92" y2="315.08" style="fill:none;stroke:#263238;stroke-linecap:round;stroke-linejoin:round"></line><line x1="336.97" y1="317" x2="336.97" y2="385.9" style="fill:none;stroke:#263238;stroke-linecap:round;stroke-linejoin:round"></line><line x1="257.49" y1="385.94" x2="414.53" y2="385.94" style="fill:none;stroke:#263238;stroke-linecap:round;stroke-linejoin:round"></line><line x1="257.49" y1="415.31" x2="414.53" y2="415.31" style="fill:none;stroke:#263238;stroke-linecap:round;stroke-linejoin:round"></line><path d="M363.46,349.88h-53a3.19,3.19,0,0,1-3.19-3.2h0a3.19,3.19,0,0,1,3.19-3.19h53a3.19,3.19,0,0,1,3.19,3.19h0A3.19,3.19,0,0,1,363.46,349.88Z" style="fill:#92E3A9;stroke:#263238;stroke-linecap:round;stroke-linejoin:round"></path><path d="M363.46,406.05h-53a3.19,3.19,0,0,1-3.19-3.19h0a3.19,3.19,0,0,1,3.19-3.19h53a3.19,3.19,0,0,1,3.19,3.19h0A3.19,3.19,0,0,1,363.46,406.05Z" style="fill:#92E3A9;stroke:#263238;stroke-linecap:round;stroke-linejoin:round"></path><path d="M363.46,431.59h-53a3.19,3.19,0,0,1-3.19-3.19h0a3.19,3.19,0,0,1,3.19-3.2h53a3.19,3.19,0,0,1,3.19,3.2h0A3.19,3.19,0,0,1,363.46,431.59Z" style="fill:#92E3A9;stroke:#263238;stroke-linecap:round;stroke-linejoin:round"></path><rect x="199.4" y="201.77" width="9.58" height="17.24" style="fill:#737373;stroke:#263238;stroke-linecap:round;stroke-linejoin:round"></rect><path d="M183.44,159h41.49a0,0,0,0,1,0,0v39.63A6.33,6.33,0,0,1,218.6,205H189.77a6.33,6.33,0,0,1-6.33-6.33V159A0,0,0,0,1,183.44,159Z" style="fill:#263238;stroke:#263238;stroke-linecap:round;stroke-linejoin:round"></path><rect x="187.9" y="164.11" width="32.56" height="19.79" style="fill:#92E3A9;stroke:#263238;stroke-linecap:round;stroke-linejoin:round"></rect><polygon points="236.42 218.08 236.42 217.73 187.91 217.73 187.91 222.84 236.42 228.58 252.38 228.58 252.38 217.73 236.42 218.08" style="fill:#adadad;stroke:#263238;stroke-linecap:round;stroke-linejoin:round"></polygon><polygon points="203.86 222.84 252.38 228.58 252.38 217.73 203.86 217.73 203.86 222.84" style="fill:#fff;stroke:#263238;stroke-linecap:round;stroke-linejoin:round"></polygon><rect x="187.9" y="217.73" width="15.96" height="5.11" style="fill:#adadad;stroke:#263238;stroke-linecap:round;stroke-linejoin:round"></rect></g><g id="freepik--Character--inject-119"><path d="M139.32,440.79s16.88,5.44,17.13,9-26.53,2.65-32-.95S139.32,440.79,139.32,440.79Z" style="fill:#fff;stroke:#263238;stroke-linecap:round;stroke-linejoin:round"></path><path d="M113.39,439.9s23.52,10.82,21.09,15.69-33-1.55-37-3.86S113.39,439.9,113.39,439.9Z" style="fill:#fff;stroke:#263238;stroke-linecap:round;stroke-linejoin:round"></path><path d="M93.89,399c6.93-27.34,18.1-61.62,13.1-84.73s-6.94-66.25-3.47-85.13,5.78-21.95,5.78-24.26S102,168.28,102,168.28s-10.4-22-7.32-28.12,24.65-12.71,30.81-13.87,21.57.77,21.57.77,18.49,6.94,20.8,10,0,14.64,0,19.64-.77,5,0,6.94,4.62,5.39,4.24,13.09-4.62,15-5,20,5,22.34,8.86,45.45,1.85,56-9.7,91.77-19,59.51-18.59,78,.81,28.54.81,28.54a21.81,21.81,0,0,1-13.35,5.06,65.43,65.43,0,0,1-14.25-.77s-3.08,4.24-15.41,6.55-21.18-1.93-21.18-1.93A435.49,435.49,0,0,1,93.89,399Zm49.3-85.5c.77-13.48-1.54-44-1.54-44a401.35,401.35,0,0,0-2.39,40.29c-.38,24.65-4.54,39.16-4.54,40.7C134.72,350.46,142.42,327,143.19,313.49Z" style="fill:#263238;stroke:#263238;stroke-linecap:round;stroke-linejoin:round"></path><path d="M174.62,142.28c-3-6.67-8.34-6.67-8.34-6.67v.14c-5.1-3.39-19.23-8.69-19.23-8.69s-15.4-1.92-21.57-.77S97.74,134,94.66,140.16,102,168.28,102,168.28s7.32,34.28,7.32,36.59-2.31,5.39-5.78,24.26c-.07.39-.14.79-.2,1.19a153.69,153.69,0,0,0,39.1,3.82c15.07-.65,24.8-4.77,30.41-8.22-3.11-14.77-6.05-25.4-5.76-29.14s2.85-9,4.2-14.71c4.85,4.48,10.32,9,12.68,9.21,4.7.35,9-5,9.67-8.67S177.62,149,174.62,142.28Z" style="fill:#92E3A9;stroke:#263238;stroke-linecap:round;stroke-linejoin:round"></path><path d="M96.55,137.92s-5.78,2.89-7,5-17.75,63.48-17.75,63.48L92,208.83l12.39-40.37s2.48-10.73,0-16.51" style="fill:#92E3A9;stroke:#263238;stroke-linecap:round;stroke-linejoin:round"></path><path d="M136.64,114.35a15.54,15.54,0,0,1,14.64,8.09c5.39,9.25,6.16,26.58,6.16,26.58s-10.78-10.4-14.63-11.94-12.71-.39-16.57,5.78a98.72,98.72,0,0,0-5.77,10.4s-10.4-19.65-6.94-30.82S136.64,114.35,136.64,114.35Z" style="fill:#fff;stroke:#263238;stroke-linecap:round;stroke-linejoin:round"></path><path d="M138.18,107.42s-1.15,3.47,2.7,13.87,3.08,28.5-1.54,27-13.48-18.87-14.64-26.58-2.31-17.33-2.31-17.33Z" style="fill:#bfbfbf;stroke:#263238;stroke-linecap:round;stroke-linejoin:round"></path><path d="M111.77,44.22s-5.38-3.69-7.65-1.14-.85,6.23-1.7,7.37-9.35-2-11.9,4,4.54,9.63,3.4,12.75-4.25,4.81-3.68,8.5,6,5.38,5.38,8.21-2.26,6.51.85,8.5,8-1.48,9.55.82,7.16,4.84,10,2.86,5-5,6-4,9,3.46,10.11,1.48,1.7-6.23,3.4-7.36,6.23-2.27,5.66-6-4.81-5.38-4-8.78,2.83-7.93,2-9.92S135,60.36,135,57.81s2.55-6.8.29-9.06-7.08-.85-8.78-2.27-1.7-5.66-5.1-5.66S113.75,44.78,111.77,44.22Z" style="fill:#263238;stroke:#263238;stroke-linecap:round;stroke-linejoin:round"></path><path d="M109.1,92.74s-1.67-4.58-4.37-3.33-1,8.75,1.66,12.29,6.46-.84,6.46-.84Z" style="fill:#bfbfbf;stroke:#263238;stroke-linecap:round;stroke-linejoin:round"></path><path d="M105.78,96.44s-.93-3.49.24-3.25,4.42,3.72,4.42,3.72-3-.47-2.1.93" style="fill:none;stroke:#263238;stroke-linecap:round;stroke-linejoin:round"></path><path d="M150.87,90.57s.92-4.79,3.79-4,2.41,8.46.3,12.39-6.5.2-6.5.2Z" style="fill:#bfbfbf;stroke:#263238;stroke-linecap:round;stroke-linejoin:round"></path><path d="M154.73,93.69s.37-3.59-.75-3.17-3.77,4.37-3.77,4.37,2.91-.94,2.22.59" style="fill:none;stroke:#263238;stroke-linecap:round;stroke-linejoin:round"></path><path d="M112.47,56l-.08.06c-10.35,8.65-9.22,23.44-4.45,34.75,2.7,6.4,5.28,12.53,9.09,18.33,4.79,7.29,12.47,14,20.38,11.31s15.2-23.73,15-39.55c-.12-9.09-3.64-19.1-10.52-25.37a20.49,20.49,0,0,0-13.39-5.2A26.43,26.43,0,0,0,112.47,56Z" style="fill:#bfbfbf;stroke:#263238;stroke-linecap:round;stroke-linejoin:round"></path><line x1="121.5" y1="95.36" x2="125.71" y2="94.55" style="fill:none;stroke:#263238;stroke-linecap:round;stroke-linejoin:round"></line><line x1="138.82" y1="92.94" x2="143.19" y2="93.26" style="fill:none;stroke:#263238;stroke-linecap:round;stroke-linejoin:round"></line><path d="M128,97.12s-1.45,2.49-.62,3.74a1.9,1.9,0,0,0,2.29.63,8,8,0,0,0,3.75.21c1.87-.42,2.29-1.25,2.29-1.25s1.24.83,1.66-1-1.66-3.54-1.66-3.54" style="fill:none;stroke:#263238;stroke-linecap:round;stroke-linejoin:round"></path><path d="M126,107.32s4.37,6.87,9.16,5.2,6-7.29,6-7.29A25.45,25.45,0,0,1,126,107.32Z" style="fill:gray;stroke:#263238;stroke-linecap:round;stroke-linejoin:round"></path><path d="M126,107.32s9.16,2.08,15.2-2.09c0,0-3.54-1-5.21-.83a4.38,4.38,0,0,0-2.7,1.67,12.07,12.07,0,0,0-3.75-1C128,105,126,107.32,126,107.32Z" style="fill:gray;stroke:#263238;stroke-linecap:round;stroke-linejoin:round"></path><path d="M141.38,90.26c0,1.43-.55,2.61-1.3,2.62s-1.37-1.13-1.4-2.57.55-2.61,1.3-2.62S141.35,88.82,141.38,90.26Z" style="fill:#263238"></path><path d="M124.69,91.47c.3,1.4-.06,2.67-.79,2.82s-1.55-.87-1.85-2.27.07-2.67.8-2.82S124.4,90.06,124.69,91.47Z" style="fill:#263238"></path><path d="M116.18,87.75s2.08-4.17,8.95-3.54" style="fill:none;stroke:#263238;stroke-linecap:round;stroke-linejoin:round"></path><path d="M135.12,84s5.62-2.5,9.58,2.29" style="fill:none;stroke:#263238;stroke-linecap:round;stroke-linejoin:round"></path><path d="M141.88,55.51a20.49,20.49,0,0,0-13.39-5.2,26.43,26.43,0,0,0-16,5.67l-.08.06c-10.12,8.46-9.26,22.79-4.76,34,.54-3.79,2.44-12.48,9-17.89,8.54-7.08,17.07-5.83,22.9-2.71a27.59,27.59,0,0,1,12.84,14.83c.06-1.15.08-2.28.07-3.38C152.28,71.79,148.76,61.78,141.88,55.51Z" style="fill:#263238;stroke:#263238;stroke-linecap:round;stroke-linejoin:round"></path><path d="M105.35,66.72s.63,7.91,9,7.08" style="fill:none;stroke:#6e6e6e;stroke-linecap:round;stroke-linejoin:round"></path><path d="M108.68,60.27s-.62,10.82,9.79,10.2" style="fill:none;stroke:#6e6e6e;stroke-linecap:round;stroke-linejoin:round"></path><path d="M112.47,56S117,67.14,124.92,67.35" style="fill:none;stroke:#6e6e6e;stroke-linecap:round;stroke-linejoin:round"></path><path d="M125.13,50.9a16.75,16.75,0,0,1,4.16,15.82" style="fill:none;stroke:#6e6e6e;stroke-linecap:round;stroke-linejoin:round"></path><path d="M136.58,52.36S144.9,58.81,138,68.8" style="fill:none;stroke:#6e6e6e;stroke-linecap:round;stroke-linejoin:round"></path><path d="M144.7,73a12.9,12.9,0,0,0,3.12-9.58" style="fill:none;stroke:#6e6e6e;stroke-linecap:round;stroke-linejoin:round"></path><path d="M144,121.82s-9.49-2.47-11.14-.41a2.72,2.72,0,0,0,0,3.71l2.48.83s1.65,9.91,5.36,10.73a48,48,0,0,0,8.67.83s27.4,51.36,29.87,53.42,10.32,6.61,14-1.65-.82-12-2.47-15.68-42.26-51.36-42.67-52.6-3.78-5.66-4.19-7.72-3.3-1.24-3.3.83S144,121.82,144,121.82Z" style="fill:#bfbfbf;stroke:#263238;stroke-linecap:round;stroke-linejoin:round"></path><polygon points="131.11 165.79 127.68 217.27 170.23 213.15 177.09 162.36 131.11 165.79" style="fill:#fff;stroke:#9e9e9e;stroke-linecap:round;stroke-linejoin:round"></polygon><path d="M120.49,192.81l3.71-11.55,5.78-2.89V185s16-3.3,16.83-2.06-2.06,2.89-2.06,2.89-2.89,7-3.72,8.66-13.94,5-16,5.37a44.58,44.58,0,0,0-4.54,1.24S84.57,219.56,81.27,220.8s-9.9-4.54-9.9-10.73,3.71-8.26,7-9.5S120.49,192.81,120.49,192.81Z" style="fill:#bfbfbf;stroke:#263238;stroke-linecap:round;stroke-linejoin:round"></path></g></svg>